<mxfile host="app.diagrams.net" modified="2022-08-12T04:21:05.058Z" agent="5.0 (Windows NT 10.0; Win64; x64) AppleWebKit/537.36 (KHTML, like Gecko) Chrome/104.0.0.0 Safari/537.36" etag="MgfQEz0_viByzCNIs09Z" version="20.2.3" type="github">
  <diagram id="JFvF6HrEmFzlZXNl5fpc" name="페이지-1">
    <mxGraphModel dx="865" dy="456" grid="1" gridSize="10" guides="1" tooltips="1" connect="1" arrows="1" fold="1" page="1" pageScale="1" pageWidth="827" pageHeight="1169" math="0" shadow="0">
      <root>
        <mxCell id="0" />
        <mxCell id="1" parent="0" />
        <mxCell id="xf-83Zf3i1FwshoI1U4T-1" value="이용자" style="shape=umlActor;verticalLabelPosition=bottom;verticalAlign=top;html=1;" vertex="1" parent="1">
          <mxGeometry x="50" y="225" width="30" height="60" as="geometry" />
        </mxCell>
        <mxCell id="xf-83Zf3i1FwshoI1U4T-2" value="게시판 서비스" style="shape=umlFrame;whiteSpace=wrap;html=1;width=110;height=30;" vertex="1" parent="1">
          <mxGeometry x="130" y="50" width="580" height="550" as="geometry" />
        </mxCell>
        <mxCell id="xf-83Zf3i1FwshoI1U4T-20" style="rounded=0;orthogonalLoop=1;jettySize=auto;html=1;exitX=0;exitY=0.5;exitDx=0;exitDy=0;entryX=1;entryY=0.3333333333333333;entryDx=0;entryDy=0;entryPerimeter=0;endArrow=none;endFill=0;" edge="1" parent="1" source="xf-83Zf3i1FwshoI1U4T-4" target="xf-83Zf3i1FwshoI1U4T-1">
          <mxGeometry relative="1" as="geometry" />
        </mxCell>
        <mxCell id="xf-83Zf3i1FwshoI1U4T-4" value="회원 가입" style="rounded=1;whiteSpace=wrap;html=1;arcSize=40;fillColor=#e1d5e7;strokeColor=#9673a6;" vertex="1" parent="1">
          <mxGeometry x="180" y="225" width="120" height="40" as="geometry" />
        </mxCell>
        <mxCell id="xf-83Zf3i1FwshoI1U4T-24" style="edgeStyle=none;rounded=0;orthogonalLoop=1;jettySize=auto;html=1;endArrow=none;endFill=0;exitX=0;exitY=0.5;exitDx=0;exitDy=0;" edge="1" parent="1" source="xf-83Zf3i1FwshoI1U4T-7">
          <mxGeometry relative="1" as="geometry">
            <mxPoint x="91" y="245" as="targetPoint" />
            <mxPoint x="181" y="335" as="sourcePoint" />
          </mxGeometry>
        </mxCell>
        <mxCell id="xf-83Zf3i1FwshoI1U4T-29" style="edgeStyle=none;rounded=0;orthogonalLoop=1;jettySize=auto;html=1;exitX=1;exitY=0.5;exitDx=0;exitDy=0;entryX=0.5;entryY=1;entryDx=0;entryDy=0;dashed=1;fontSize=12;startArrow=none;startFill=0;endArrow=classic;endFill=1;" edge="1" parent="1" source="xf-83Zf3i1FwshoI1U4T-7" target="xf-83Zf3i1FwshoI1U4T-10">
          <mxGeometry relative="1" as="geometry" />
        </mxCell>
        <mxCell id="xf-83Zf3i1FwshoI1U4T-39" style="edgeStyle=none;rounded=0;orthogonalLoop=1;jettySize=auto;html=1;entryX=0;entryY=0.5;entryDx=0;entryDy=0;fontSize=12;startArrow=none;startFill=0;endArrow=none;endFill=0;exitX=1;exitY=0.5;exitDx=0;exitDy=0;" edge="1" parent="1" source="xf-83Zf3i1FwshoI1U4T-7" target="xf-83Zf3i1FwshoI1U4T-36">
          <mxGeometry relative="1" as="geometry" />
        </mxCell>
        <mxCell id="xf-83Zf3i1FwshoI1U4T-7" value="게시판 보기&lt;span style=&quot;color: rgba(0, 0, 0, 0); font-family: monospace; font-size: 0px; text-align: start;&quot;&gt;%3CmxGraphModel%3E%3Croot%3E%3CmxCell%20id%3D%220%22%2F%3E%3CmxCell%20id%3D%221%22%20parent%3D%220%22%2F%3E%3CmxCell%20id%3D%222%22%20value%3D%22%ED%9A%8C%EC%9B%90%20%EA%B0%80%EC%9E%85%22%20style%3D%22rounded%3D1%3BwhiteSpace%3Dwrap%3Bhtml%3D1%3BarcSize%3D40%3BfontColor%3D%23000000%3BfillColor%3D%23ffffc0%3BstrokeColor%3D%23ff0000%3B%22%20vertex%3D%221%22%20parent%3D%221%22%3E%3CmxGeometry%20x%3D%22170%22%20y%3D%22110%22%20width%3D%22120%22%20height%3D%2240%22%20as%3D%22geometry%22%2F%3E%3C%2FmxCell%3E%3C%2Froot%3E%3C%2FmxGraphModel%3E&lt;/span&gt;" style="rounded=1;whiteSpace=wrap;html=1;arcSize=40;fillColor=#e1d5e7;strokeColor=#9673a6;" vertex="1" parent="1">
          <mxGeometry x="180" y="300" width="120" height="40" as="geometry" />
        </mxCell>
        <mxCell id="xf-83Zf3i1FwshoI1U4T-25" style="edgeStyle=none;rounded=0;orthogonalLoop=1;jettySize=auto;html=1;endArrow=none;endFill=0;exitX=0;exitY=0.5;exitDx=0;exitDy=0;" edge="1" parent="1" source="xf-83Zf3i1FwshoI1U4T-8">
          <mxGeometry relative="1" as="geometry">
            <mxPoint x="91" y="245" as="targetPoint" />
            <mxPoint x="181" y="455" as="sourcePoint" />
          </mxGeometry>
        </mxCell>
        <mxCell id="xf-83Zf3i1FwshoI1U4T-30" style="edgeStyle=none;rounded=0;orthogonalLoop=1;jettySize=auto;html=1;entryX=0.583;entryY=1;entryDx=0;entryDy=0;entryPerimeter=0;dashed=1;fontSize=12;startArrow=classic;startFill=1;endArrow=classic;endFill=1;" edge="1" parent="1" source="xf-83Zf3i1FwshoI1U4T-2" target="xf-83Zf3i1FwshoI1U4T-10">
          <mxGeometry relative="1" as="geometry" />
        </mxCell>
        <mxCell id="xf-83Zf3i1FwshoI1U4T-31" style="edgeStyle=none;rounded=0;orthogonalLoop=1;jettySize=auto;html=1;exitX=1;exitY=0.5;exitDx=0;exitDy=0;entryX=0.5;entryY=1;entryDx=0;entryDy=0;dashed=1;fontSize=12;startArrow=none;startFill=0;endArrow=classic;endFill=1;" edge="1" parent="1" source="xf-83Zf3i1FwshoI1U4T-8" target="xf-83Zf3i1FwshoI1U4T-10">
          <mxGeometry relative="1" as="geometry" />
        </mxCell>
        <mxCell id="xf-83Zf3i1FwshoI1U4T-40" style="edgeStyle=none;rounded=0;orthogonalLoop=1;jettySize=auto;html=1;entryX=0;entryY=0.5;entryDx=0;entryDy=0;fontSize=12;startArrow=none;startFill=0;endArrow=none;endFill=0;exitX=1;exitY=0.5;exitDx=0;exitDy=0;" edge="1" parent="1" source="xf-83Zf3i1FwshoI1U4T-8" target="xf-83Zf3i1FwshoI1U4T-36">
          <mxGeometry relative="1" as="geometry">
            <Array as="points">
              <mxPoint x="390" y="420" />
              <mxPoint x="580" y="390" />
            </Array>
          </mxGeometry>
        </mxCell>
        <mxCell id="xf-83Zf3i1FwshoI1U4T-8" value="게시글 보기" style="rounded=1;whiteSpace=wrap;html=1;arcSize=40;fillColor=#e1d5e7;strokeColor=#9673a6;" vertex="1" parent="1">
          <mxGeometry x="180" y="478" width="120" height="40" as="geometry" />
        </mxCell>
        <mxCell id="xf-83Zf3i1FwshoI1U4T-23" style="edgeStyle=none;rounded=0;orthogonalLoop=1;jettySize=auto;html=1;endArrow=none;endFill=0;exitX=0;exitY=0.5;exitDx=0;exitDy=0;" edge="1" parent="1">
          <mxGeometry relative="1" as="geometry">
            <mxPoint x="90" y="245" as="targetPoint" />
            <mxPoint x="330" y="125" as="sourcePoint" />
          </mxGeometry>
        </mxCell>
        <mxCell id="xf-83Zf3i1FwshoI1U4T-10" value="회원 로그인" style="rounded=1;whiteSpace=wrap;html=1;arcSize=40;fillColor=#e1d5e7;strokeColor=#9673a6;" vertex="1" parent="1">
          <mxGeometry x="330" y="100" width="120" height="40" as="geometry" />
        </mxCell>
        <mxCell id="xf-83Zf3i1FwshoI1U4T-26" value="&amp;lt;&amp;lt;include&amp;gt;&amp;gt;" style="edgeStyle=none;rounded=0;orthogonalLoop=1;jettySize=auto;html=1;endArrow=none;endFill=0;dashed=1;startArrow=classic;startFill=1;" edge="1" parent="1" source="xf-83Zf3i1FwshoI1U4T-11" target="xf-83Zf3i1FwshoI1U4T-10">
          <mxGeometry relative="1" as="geometry" />
        </mxCell>
        <mxCell id="xf-83Zf3i1FwshoI1U4T-38" style="edgeStyle=none;rounded=0;orthogonalLoop=1;jettySize=auto;html=1;entryX=0;entryY=0.5;entryDx=0;entryDy=0;fontSize=12;startArrow=none;startFill=0;endArrow=none;endFill=0;exitX=1;exitY=0.5;exitDx=0;exitDy=0;" edge="1" parent="1" source="xf-83Zf3i1FwshoI1U4T-11" target="xf-83Zf3i1FwshoI1U4T-36">
          <mxGeometry relative="1" as="geometry" />
        </mxCell>
        <mxCell id="xf-83Zf3i1FwshoI1U4T-11" value="인증" style="rounded=1;whiteSpace=wrap;html=1;arcSize=40;fillColor=#e1d5e7;strokeColor=#9673a6;" vertex="1" parent="1">
          <mxGeometry x="570" y="100" width="120" height="40" as="geometry" />
        </mxCell>
        <mxCell id="xf-83Zf3i1FwshoI1U4T-27" value="&amp;lt;&amp;lt;extend&amp;gt;&amp;gt;" style="edgeStyle=none;rounded=0;orthogonalLoop=1;jettySize=auto;html=1;entryX=1;entryY=0.5;entryDx=0;entryDy=0;endArrow=classic;endFill=1;exitX=0;exitY=0.5;exitDx=0;exitDy=0;dashed=1;" edge="1" parent="1" source="xf-83Zf3i1FwshoI1U4T-12" target="xf-83Zf3i1FwshoI1U4T-10">
          <mxGeometry relative="1" as="geometry" />
        </mxCell>
        <mxCell id="xf-83Zf3i1FwshoI1U4T-12" value="로그인 실패" style="rounded=1;whiteSpace=wrap;html=1;arcSize=40;fillColor=#e1d5e7;strokeColor=#9673a6;" vertex="1" parent="1">
          <mxGeometry x="570" y="190" width="120" height="40" as="geometry" />
        </mxCell>
        <mxCell id="xf-83Zf3i1FwshoI1U4T-32" style="edgeStyle=none;rounded=0;orthogonalLoop=1;jettySize=auto;html=1;dashed=1;fontSize=12;startArrow=none;startFill=0;endArrow=classic;endFill=1;exitX=0;exitY=0.5;exitDx=0;exitDy=0;" edge="1" parent="1" source="xf-83Zf3i1FwshoI1U4T-14">
          <mxGeometry relative="1" as="geometry">
            <mxPoint x="380" y="290" as="sourcePoint" />
            <mxPoint x="300" y="326" as="targetPoint" />
          </mxGeometry>
        </mxCell>
        <mxCell id="xf-83Zf3i1FwshoI1U4T-14" value="게시판 정렬&lt;span style=&quot;color: rgba(0, 0, 0, 0); font-family: monospace; font-size: 0px; text-align: start;&quot;&gt;%3CmxGraphModel%3E%3Croot%3E%3CmxCell%20id%3D%220%22%2F%3E%3CmxCell%20id%3D%221%22%20parent%3D%220%22%2F%3E%3CmxCell%20id%3D%222%22%20value%3D%22%ED%9A%8C%EC%9B%90%20%EA%B0%80%EC%9E%85%22%20style%3D%22rounded%3D1%3BwhiteSpace%3Dwrap%3Bhtml%3D1%3BarcSize%3D40%3BfontColor%3D%23000000%3BfillColor%3D%23ffffc0%3BstrokeColor%3D%23ff0000%3B%22%20vertex%3D%221%22%20parent%3D%221%22%3E%3CmxGeometry%20x%3D%22170%22%20y%3D%22110%22%20width%3D%22120%22%20height%3D%2240%22%20as%3D%22geometry%22%2F%3E%3C%2FmxCell%3E%3C%2Froot%3E%3C%2FmxGraphModel%&lt;/span&gt;" style="rounded=1;whiteSpace=wrap;html=1;arcSize=40;fillColor=#e1d5e7;strokeColor=#9673a6;" vertex="1" parent="1">
          <mxGeometry x="385" y="250" width="120" height="40" as="geometry" />
        </mxCell>
        <mxCell id="xf-83Zf3i1FwshoI1U4T-33" style="edgeStyle=none;rounded=0;orthogonalLoop=1;jettySize=auto;html=1;entryX=1;entryY=0.5;entryDx=0;entryDy=0;dashed=1;fontSize=12;startArrow=none;startFill=0;endArrow=classic;endFill=1;exitX=0;exitY=0.5;exitDx=0;exitDy=0;" edge="1" parent="1" source="xf-83Zf3i1FwshoI1U4T-15" target="xf-83Zf3i1FwshoI1U4T-7">
          <mxGeometry relative="1" as="geometry" />
        </mxCell>
        <mxCell id="xf-83Zf3i1FwshoI1U4T-15" value="게시판 검색&lt;span style=&quot;color: rgba(0, 0, 0, 0); font-family: monospace; font-size: 0px; text-align: start;&quot;&gt;%3CmxGraphModel%3E%3Croot%3E%3CmxCell%20id%3D%220%22%2F%3E%3CmxCell%20id%3D%221%22%20parent%3D%220%22%2F%3E%3CmxCell%20id%3D%222%22%20value%3D%22%ED%9A%8C%EC%9B%90%20%EA%B0%80%EC%9E%85%22%20style%3D%22rounded%3D1%3BwhiteSpace%3Dwrap%3Bhtml%3D1%3BarcSize%3D40%3BfontColor%3D%23000000%3BfillColor%3D%23ffffc0%3BstrokeColor%3D%23ff0000%3B%22%20vertex%3D%221%22%20parent%3D%221%22%3E%3CmxGeometry%20x%3D%22170%22%20y%3D%22110%22%20width%3D%22120%22%20height%3D%2240%22%20as%3D%22geometry%22%2F%3E%3C%2FmxCell%3E%3C%2Froot%3E%3C%2FmxGraphMode&lt;/span&gt;" style="rounded=1;whiteSpace=wrap;html=1;arcSize=40;fillColor=#e1d5e7;strokeColor=#9673a6;" vertex="1" parent="1">
          <mxGeometry x="385" y="340" width="120" height="40" as="geometry" />
        </mxCell>
        <mxCell id="xf-83Zf3i1FwshoI1U4T-34" style="edgeStyle=none;rounded=0;orthogonalLoop=1;jettySize=auto;html=1;entryX=1;entryY=0.5;entryDx=0;entryDy=0;dashed=1;fontSize=12;startArrow=none;startFill=0;endArrow=classic;endFill=1;exitX=0;exitY=0.5;exitDx=0;exitDy=0;" edge="1" parent="1" source="xf-83Zf3i1FwshoI1U4T-16" target="xf-83Zf3i1FwshoI1U4T-8">
          <mxGeometry relative="1" as="geometry" />
        </mxCell>
        <mxCell id="xf-83Zf3i1FwshoI1U4T-42" style="edgeStyle=none;rounded=0;orthogonalLoop=1;jettySize=auto;html=1;entryX=0;entryY=0.5;entryDx=0;entryDy=0;fontSize=12;startArrow=none;startFill=0;endArrow=none;endFill=0;exitX=1;exitY=0.5;exitDx=0;exitDy=0;" edge="1" parent="1" source="xf-83Zf3i1FwshoI1U4T-16" target="xf-83Zf3i1FwshoI1U4T-36">
          <mxGeometry relative="1" as="geometry">
            <Array as="points">
              <mxPoint x="640" y="400" />
            </Array>
          </mxGeometry>
        </mxCell>
        <mxCell id="xf-83Zf3i1FwshoI1U4T-16" value="게시글 쓰기, 수정, 삭제" style="rounded=1;whiteSpace=wrap;html=1;arcSize=40;fillColor=#e1d5e7;strokeColor=#9673a6;" vertex="1" parent="1">
          <mxGeometry x="375" y="440" width="140" height="40" as="geometry" />
        </mxCell>
        <mxCell id="xf-83Zf3i1FwshoI1U4T-35" style="edgeStyle=none;rounded=0;orthogonalLoop=1;jettySize=auto;html=1;entryX=1;entryY=0.5;entryDx=0;entryDy=0;dashed=1;fontSize=12;startArrow=none;startFill=0;endArrow=classic;endFill=1;exitX=0;exitY=0.5;exitDx=0;exitDy=0;" edge="1" parent="1" source="xf-83Zf3i1FwshoI1U4T-17" target="xf-83Zf3i1FwshoI1U4T-8">
          <mxGeometry relative="1" as="geometry" />
        </mxCell>
        <mxCell id="xf-83Zf3i1FwshoI1U4T-43" style="edgeStyle=none;rounded=0;orthogonalLoop=1;jettySize=auto;html=1;entryX=0;entryY=0.5;entryDx=0;entryDy=0;fontSize=12;startArrow=none;startFill=0;endArrow=none;endFill=0;exitX=1;exitY=0.5;exitDx=0;exitDy=0;" edge="1" parent="1" source="xf-83Zf3i1FwshoI1U4T-17" target="xf-83Zf3i1FwshoI1U4T-36">
          <mxGeometry relative="1" as="geometry">
            <Array as="points">
              <mxPoint x="640" y="440" />
            </Array>
          </mxGeometry>
        </mxCell>
        <mxCell id="xf-83Zf3i1FwshoI1U4T-17" value="댓글 보기 쓰기, &lt;br&gt;수정, 삭제" style="rounded=1;whiteSpace=wrap;html=1;arcSize=40;fillColor=#e1d5e7;strokeColor=#9673a6;" vertex="1" parent="1">
          <mxGeometry x="375" y="518" width="140" height="40" as="geometry" />
        </mxCell>
        <mxCell id="xf-83Zf3i1FwshoI1U4T-36" value="DB" style="html=1;dropTarget=0;fontSize=12;" vertex="1" parent="1">
          <mxGeometry x="746" y="232" width="60" height="70" as="geometry" />
        </mxCell>
      </root>
    </mxGraphModel>
  </diagram>
</mxfile>
